<?xml version="1.0" encoding="UTF-8" standalone="no"?>
<!DOCTYPE svg PUBLIC "-//W3C//DTD SVG 1.0//EN" "http://www.w3.org/TR/2001/PR-SVG-20010719/DTD/svg10.dtd">
<svg width="7cm" height="18cm" viewBox="138 69 133 346" xmlns="http://www.w3.org/2000/svg" xmlns:xlink="http://www.w3.org/1999/xlink">
  <g>
    <ellipse style="fill: #90ee90" cx="160" cy="97.0673" rx="20" ry="17.2325"/>
    <ellipse style="fill: none; fill-opacity:0; stroke-width: 2; stroke: #000000" cx="160" cy="97.0673" rx="20" ry="17.2325"/>
    <text style="fill: #000000;text-anchor:middle;font-size:12.8;font-family:sanserif;font-style:normal;font-weight:normal" x="160" y="100.967">
      <tspan x="160" y="100.967"></tspan>
    </text>
  </g>
  <g>
    <ellipse style="fill: #90ee90" cx="160" cy="157.232" rx="20" ry="17.2325"/>
    <ellipse style="fill: none; fill-opacity:0; stroke-width: 2; stroke: #000000" cx="160" cy="157.232" rx="20" ry="17.2325"/>
    <text style="fill: #000000;text-anchor:middle;font-size:12.8;font-family:sanserif;font-style:normal;font-weight:normal" x="160" y="161.132">
      <tspan x="160" y="161.132"></tspan>
    </text>
  </g>
  <g>
    <ellipse style="fill: #90ee90" cx="160" cy="217.232" rx="20" ry="17.2325"/>
    <ellipse style="fill: none; fill-opacity:0; stroke-width: 2; stroke: #000000" cx="160" cy="217.232" rx="20" ry="17.2325"/>
    <text style="fill: #000000;text-anchor:middle;font-size:12.8;font-family:sanserif;font-style:normal;font-weight:normal" x="160" y="221.132">
      <tspan x="160" y="221.132"></tspan>
    </text>
  </g>
  <g>
    <ellipse style="fill: #90ee90" cx="160" cy="277.232" rx="20" ry="17.2325"/>
    <ellipse style="fill: none; fill-opacity:0; stroke-width: 2; stroke: #000000" cx="160" cy="277.232" rx="20" ry="17.2325"/>
    <text style="fill: #000000;text-anchor:middle;font-size:12.8;font-family:sanserif;font-style:normal;font-weight:normal" x="160" y="281.132">
      <tspan x="160" y="281.132"></tspan>
    </text>
  </g>
  <g>
    <ellipse style="fill: #90ee90" cx="160" cy="337.232" rx="20" ry="17.2325"/>
    <ellipse style="fill: none; fill-opacity:0; stroke-width: 2; stroke: #000000" cx="160" cy="337.232" rx="20" ry="17.2325"/>
    <text style="fill: #000000;text-anchor:middle;font-size:12.8;font-family:sanserif;font-style:normal;font-weight:normal" x="160" y="341.132">
      <tspan x="160" y="341.132"></tspan>
    </text>
  </g>
  <g>
    <ellipse style="fill: #90ee90" cx="160" cy="397.232" rx="20" ry="17.2325"/>
    <ellipse style="fill: none; fill-opacity:0; stroke-width: 2; stroke: #000000" cx="160" cy="397.232" rx="20" ry="17.2325"/>
    <text style="fill: #000000;text-anchor:middle;font-size:12.8;font-family:sanserif;font-style:normal;font-weight:normal" x="160" y="401.132">
      <tspan x="160" y="401.132"></tspan>
    </text>
  </g>
  <g>
    <line style="fill: none; fill-opacity:0; stroke-width: 2; stroke: #000000" x1="160" y1="115.296" x2="160" y2="129.268"/>
    <polygon style="fill: #000000" points="160,136.768 155,126.768 160,129.268 165,126.768 "/>
    <polygon style="fill: none; fill-opacity:0; stroke-width: 2; stroke: #000000" points="160,136.768 155,126.768 160,129.268 165,126.768 "/>
  </g>
  <g>
    <line style="fill: none; fill-opacity:0; stroke-width: 2; stroke: #000000" x1="160" y1="175.47" x2="160" y2="189.259"/>
    <polygon style="fill: #000000" points="160,196.759 155,186.759 160,189.259 165,186.759 "/>
    <polygon style="fill: none; fill-opacity:0; stroke-width: 2; stroke: #000000" points="160,196.759 155,186.759 160,189.259 165,186.759 "/>
  </g>
  <g>
    <line style="fill: none; fill-opacity:0; stroke-width: 2; stroke: #000000" x1="160" y1="235.47" x2="160" y2="249.259"/>
    <polygon style="fill: #000000" points="160,256.759 155,246.759 160,249.259 165,246.759 "/>
    <polygon style="fill: none; fill-opacity:0; stroke-width: 2; stroke: #000000" points="160,256.759 155,246.759 160,249.259 165,246.759 "/>
  </g>
  <g>
    <line style="fill: none; fill-opacity:0; stroke-width: 2; stroke: #000000" x1="160" y1="295.47" x2="160" y2="309.259"/>
    <polygon style="fill: #000000" points="160,316.759 155,306.759 160,309.259 165,306.759 "/>
    <polygon style="fill: none; fill-opacity:0; stroke-width: 2; stroke: #000000" points="160,316.759 155,306.759 160,309.259 165,306.759 "/>
  </g>
  <g>
    <line style="fill: none; fill-opacity:0; stroke-width: 2; stroke: #000000" x1="160" y1="355.47" x2="160" y2="369.259"/>
    <polygon style="fill: #000000" points="160,376.759 155,366.759 160,369.259 165,366.759 "/>
    <polygon style="fill: none; fill-opacity:0; stroke-width: 2; stroke: #000000" points="160,376.759 155,366.759 160,369.259 165,366.759 "/>
  </g>
  <text style="fill: #000000;text-anchor:middle;font-size:12.8;font-family:sanserif;font-style:normal;font-weight:normal" x="160" y="401.657">
    <tspan x="160" y="401.657">a</tspan>
  </text>
  <text style="fill: #000000;text-anchor:middle;font-size:12.8;font-family:sanserif;font-style:normal;font-weight:normal" x="160" y="341.657">
    <tspan x="160" y="341.657">b</tspan>
  </text>
  <text style="fill: #000000;text-anchor:middle;font-size:12.8;font-family:sanserif;font-style:normal;font-weight:normal" x="160" y="281.657">
    <tspan x="160" y="281.657">c</tspan>
  </text>
  <text style="fill: #000000;text-anchor:middle;font-size:12.8;font-family:sanserif;font-style:normal;font-weight:normal" x="160" y="221.657">
    <tspan x="160" y="221.657">d</tspan>
  </text>
  <text style="fill: #000000;text-anchor:middle;font-size:12.8;font-family:sanserif;font-style:normal;font-weight:normal" x="160" y="161.657">
    <tspan x="160" y="161.657">e</tspan>
  </text>
  <text style="fill: #000000;text-anchor:middle;font-size:12.8;font-family:sanserif;font-style:normal;font-weight:normal" x="160" y="101.492">
    <tspan x="160" y="101.492">f</tspan>
  </text>
  <g>
    <rect style="fill: #add8e6" x="210.586" y="191.086" width="59.4142" height="18.4142" rx="2" ry="2"/>
    <rect style="fill: none; fill-opacity:0; stroke-width: 2; stroke-linejoin: round; stroke: #000000" x="210.586" y="191.086" width="59.4142" height="18.4142" rx="2" ry="2"/>
  </g>
  <text style="fill: #000000;text-anchor:middle;font-size:12.8;font-family:sanserif;font-style:normal;font-weight:normal" x="240.292" y="204.717">
    <tspan x="240.292" y="204.717">feature</tspan>
  </text>
  <line style="fill: none; fill-opacity:0; stroke-width: 2; stroke-linejoin: round; stroke: #000000" x1="210.586" y1="200.292" x2="179.593" y2="210.671"/>
  <g>
    <rect style="fill: #add8e6" x="210.292" y="70.7928" width="59.4142" height="18.4142" rx="2" ry="2"/>
    <rect style="fill: none; fill-opacity:0; stroke-width: 2; stroke-linejoin: round; stroke: #000000" x="210.292" y="70.7928" width="59.4142" height="18.4142" rx="2" ry="2"/>
  </g>
  <text style="fill: #000000;text-anchor:middle;font-size:12.8;font-family:sanserif;font-style:normal;font-weight:normal" x="240" y="84.425">
    <tspan x="240" y="84.425">master</tspan>
  </text>
  <line style="fill: none; fill-opacity:0; stroke-width: 2; stroke-linejoin: round; stroke: #000000" x1="210.292" y1="80" x2="179.559" y2="90.4295"/>
</svg>
