<?xml version="1.0" encoding="UTF-8" standalone="no"?>
<!DOCTYPE svg PUBLIC "-//W3C//DTD SVG 1.0//EN" "http://www.w3.org/TR/2001/PR-SVG-20010719/DTD/svg10.dtd">
<svg width="10cm" height="18cm" viewBox="138 29 183 346" xmlns="http://www.w3.org/2000/svg" xmlns:xlink="http://www.w3.org/1999/xlink">
  <g>
    <ellipse style="fill: #90ee90" cx="160" cy="177.232" rx="20" ry="17.2325"/>
    <ellipse style="fill: none; fill-opacity:0; stroke-width: 2; stroke: #000000" cx="160" cy="177.232" rx="20" ry="17.2325"/>
    <text style="fill: #000000;text-anchor:middle;font-size:12.8;font-family:sanserif;font-style:normal;font-weight:normal" x="160" y="181.132">
      <tspan x="160" y="181.132"></tspan>
    </text>
  </g>
  <g>
    <ellipse style="fill: #90ee90" cx="160" cy="237.398" rx="20" ry="17.2325"/>
    <ellipse style="fill: none; fill-opacity:0; stroke-width: 2; stroke: #000000" cx="160" cy="237.398" rx="20" ry="17.2325"/>
    <text style="fill: #000000;text-anchor:middle;font-size:12.8;font-family:sanserif;font-style:normal;font-weight:normal" x="160" y="241.298">
      <tspan x="160" y="241.298"></tspan>
    </text>
  </g>
  <g>
    <ellipse style="fill: #90ee90" cx="160" cy="297.398" rx="20" ry="17.2325"/>
    <ellipse style="fill: none; fill-opacity:0; stroke-width: 2; stroke: #000000" cx="160" cy="297.398" rx="20" ry="17.2325"/>
    <text style="fill: #000000;text-anchor:middle;font-size:12.8;font-family:sanserif;font-style:normal;font-weight:normal" x="160" y="301.298">
      <tspan x="160" y="301.298"></tspan>
    </text>
  </g>
  <g>
    <ellipse style="fill: #90ee90" cx="160" cy="357.398" rx="20" ry="17.2325"/>
    <ellipse style="fill: none; fill-opacity:0; stroke-width: 2; stroke: #000000" cx="160" cy="357.398" rx="20" ry="17.2325"/>
    <text style="fill: #000000;text-anchor:middle;font-size:12.8;font-family:sanserif;font-style:normal;font-weight:normal" x="160" y="361.298">
      <tspan x="160" y="361.298"></tspan>
    </text>
  </g>
  <g>
    <ellipse style="fill: #90ee90" cx="160" cy="120" rx="20" ry="17.2325"/>
    <ellipse style="fill: none; fill-opacity:0; stroke-width: 2; stroke: #000000" cx="160" cy="120" rx="20" ry="17.2325"/>
    <text style="fill: #000000;text-anchor:middle;font-size:12.8;font-family:sanserif;font-style:normal;font-weight:normal" x="160" y="123.9">
      <tspan x="160" y="123.9"></tspan>
    </text>
  </g>
  <g>
    <line style="fill: none; fill-opacity:0; stroke-width: 2; stroke: #000000" x1="160" y1="195.461" x2="160" y2="209.433"/>
    <polygon style="fill: #000000" points="160,216.933 155,206.933 160,209.433 165,206.933 "/>
    <polygon style="fill: none; fill-opacity:0; stroke-width: 2; stroke: #000000" points="160,216.933 155,206.933 160,209.433 165,206.933 "/>
  </g>
  <g>
    <line style="fill: none; fill-opacity:0; stroke-width: 2; stroke: #000000" x1="160" y1="255.636" x2="160" y2="269.425"/>
    <polygon style="fill: #000000" points="160,276.925 155,266.925 160,269.425 165,266.925 "/>
    <polygon style="fill: none; fill-opacity:0; stroke-width: 2; stroke: #000000" points="160,276.925 155,266.925 160,269.425 165,266.925 "/>
  </g>
  <g>
    <line style="fill: none; fill-opacity:0; stroke-width: 2; stroke: #000000" x1="160" y1="315.636" x2="160" y2="329.425"/>
    <polygon style="fill: #000000" points="160,336.925 155,326.925 160,329.425 165,326.925 "/>
    <polygon style="fill: none; fill-opacity:0; stroke-width: 2; stroke: #000000" points="160,336.925 155,326.925 160,329.425 165,326.925 "/>
  </g>
  <g>
    <line style="fill: none; fill-opacity:0; stroke-width: 2; stroke: #000000" x1="160" y1="138.223" x2="160" y2="150.264"/>
    <polygon style="fill: #000000" points="160,157.764 155,147.764 160,150.264 165,147.764 "/>
    <polygon style="fill: none; fill-opacity:0; stroke-width: 2; stroke: #000000" points="160,157.764 155,147.764 160,150.264 165,147.764 "/>
  </g>
  <text style="fill: #000000;text-anchor:middle;font-size:12.8;font-family:sanserif;font-style:normal;font-weight:normal" x="160" y="124.425">
    <tspan x="160" y="124.425">i</tspan>
  </text>
  <text style="fill: #000000;text-anchor:middle;font-size:12.8;font-family:sanserif;font-style:normal;font-weight:normal" x="160" y="361.823">
    <tspan x="160" y="361.823">c</tspan>
  </text>
  <text style="fill: #000000;text-anchor:middle;font-size:12.8;font-family:sanserif;font-style:normal;font-weight:normal" x="160" y="301.823">
    <tspan x="160" y="301.823">d</tspan>
  </text>
  <text style="fill: #000000;text-anchor:middle;font-size:12.8;font-family:sanserif;font-style:normal;font-weight:normal" x="160" y="241.823">
    <tspan x="160" y="241.823">e</tspan>
  </text>
  <text style="fill: #000000;text-anchor:middle;font-size:12.8;font-family:sanserif;font-style:normal;font-weight:normal" x="160" y="181.657">
    <tspan x="160" y="181.657">f</tspan>
  </text>
  <g>
    <rect style="fill: #add8e6" x="210.292" y="70.7928" width="59.4142" height="18.4142" rx="2" ry="2"/>
    <rect style="fill: none; fill-opacity:0; stroke-width: 2; stroke-linejoin: round; stroke: #000000" x="210.292" y="70.7928" width="59.4142" height="18.4142" rx="2" ry="2"/>
  </g>
  <text style="fill: #000000;text-anchor:middle;font-size:12.8;font-family:sanserif;font-style:normal;font-weight:normal" x="240" y="84.425">
    <tspan x="240" y="84.425">master</tspan>
  </text>
  <line style="fill: none; fill-opacity:0; stroke-width: 2; stroke-linejoin: round; stroke: #000000" x1="210.292" y1="80" x2="175.477" y2="107.69"/>
  <g>
    <ellipse style="fill: #90ee90" cx="300" cy="180.165" rx="20" ry="17.2325"/>
    <ellipse style="fill: none; fill-opacity:0; stroke-width: 2; stroke: #000000" cx="300" cy="180.165" rx="20" ry="17.2325"/>
    <text style="fill: #000000;text-anchor:middle;font-size:12.8;font-family:sanserif;font-style:normal;font-weight:normal" x="300" y="184.065">
      <tspan x="300" y="184.065"></tspan>
    </text>
  </g>
  <g>
    <ellipse style="fill: #90ee90" cx="300" cy="240.33" rx="20" ry="17.2325"/>
    <ellipse style="fill: none; fill-opacity:0; stroke-width: 2; stroke: #000000" cx="300" cy="240.33" rx="20" ry="17.2325"/>
    <text style="fill: #000000;text-anchor:middle;font-size:12.8;font-family:sanserif;font-style:normal;font-weight:normal" x="300" y="244.23">
      <tspan x="300" y="244.23"></tspan>
    </text>
  </g>
  <g>
    <line style="fill: none; fill-opacity:0; stroke-width: 2; stroke: #000000" x1="300" y1="198.394" x2="300" y2="212.366"/>
    <polygon style="fill: #000000" points="300,219.866 295,209.866 300,212.366 305,209.866 "/>
    <polygon style="fill: none; fill-opacity:0; stroke-width: 2; stroke: #000000" points="300,219.866 295,209.866 300,212.366 305,209.866 "/>
  </g>
  <text style="fill: #000000;text-anchor:middle;font-size:12.8;font-family:sanserif;font-style:normal;font-weight:normal" x="300" y="244.755">
    <tspan x="300" y="244.755">g</tspan>
  </text>
  <text style="fill: #000000;text-anchor:middle;font-size:12.8;font-family:sanserif;font-style:normal;font-weight:normal" x="300" y="184.59">
    <tspan x="300" y="184.59">h</tspan>
  </text>
  <g>
    <rect style="fill: #add8e6" x="210.292" y="30.7928" width="59.4142" height="18.4142" rx="2" ry="2"/>
    <rect style="fill: none; fill-opacity:0; stroke-width: 2; stroke-linejoin: round; stroke: #000000" x="210.292" y="30.7928" width="59.4142" height="18.4142" rx="2" ry="2"/>
  </g>
  <text style="fill: #000000;text-anchor:middle;font-size:12.8;font-family:sanserif;font-style:normal;font-weight:normal" x="240" y="44.425">
    <tspan x="240" y="44.425">feature</tspan>
  </text>
  <line style="fill: none; fill-opacity:0; stroke-width: 2; stroke-linejoin: round; stroke: #000000" x1="210.292" y1="40" x2="170.044" y2="104.023"/>
  <g>
    <path style="fill: none; fill-opacity:0; stroke-width: 2; stroke: #000000" d="M 300 258.527 C 300,298.363 280.975,300.747 190.708,298.248"/>
    <polygon style="fill: #000000" points="183.211,298.04 193.345,293.319 190.708,298.248 193.068,303.315 "/>
    <polygon style="fill: none; fill-opacity:0; stroke-width: 2; stroke: #000000" points="183.211,298.04 193.345,293.319 190.708,298.248 193.068,303.315 "/>
  </g>
  <g>
    <path style="fill: none; fill-opacity:0; stroke-width: 2; stroke: #000000" d="M 181.001 120 C 301.001,120 300,121.762 300,152.191"/>
    <polygon style="fill: #000000" points="300,159.691 295,149.691 300,152.191 305,149.691 "/>
    <polygon style="fill: none; fill-opacity:0; stroke-width: 2; stroke: #000000" points="300,159.691 295,149.691 300,152.191 305,149.691 "/>
  </g>
</svg>
