<?xml version="1.0" encoding="UTF-8" standalone="no"?>
<!DOCTYPE svg PUBLIC "-//W3C//DTD SVG 1.0//EN" "http://www.w3.org/TR/2001/PR-SVG-20010719/DTD/svg10.dtd">
<svg width="4cm" height="13cm" viewBox="22 22 62 260" xmlns="http://www.w3.org/2000/svg" xmlns:xlink="http://www.w3.org/1999/xlink">
  <g>
    <ellipse style="fill: #90ee90" cx="52" cy="83.232" rx="20" ry="17.2325"/>
    <ellipse style="fill: none; fill-opacity:0; stroke-width: 2; stroke: #000000" cx="52" cy="83.232" rx="20" ry="17.2325"/>
    <text font-size="12.8" style="fill: #000000;text-anchor:middle;font-family:sans-serif;font-style:normal;font-weight:normal" x="52" y="87.132">
      <tspan x="52" y="87.132"></tspan>
    </text>
  </g>
  <g>
    <ellipse style="fill: #90ee90" cx="52" cy="143.232" rx="20" ry="17.2325"/>
    <ellipse style="fill: none; fill-opacity:0; stroke-width: 2; stroke: #000000" cx="52" cy="143.232" rx="20" ry="17.2325"/>
    <text font-size="12.8" style="fill: #000000;text-anchor:middle;font-family:sans-serif;font-style:normal;font-weight:normal" x="52" y="147.132">
      <tspan x="52" y="147.132"></tspan>
    </text>
  </g>
  <g>
    <ellipse style="fill: #90ee90" cx="52" cy="203.232" rx="20" ry="17.2325"/>
    <ellipse style="fill: none; fill-opacity:0; stroke-width: 2; stroke: #000000" cx="52" cy="203.232" rx="20" ry="17.2325"/>
    <text font-size="12.8" style="fill: #000000;text-anchor:middle;font-family:sans-serif;font-style:normal;font-weight:normal" x="52" y="207.132">
      <tspan x="52" y="207.132"></tspan>
    </text>
  </g>
  <g>
    <ellipse style="fill: #90ee90" cx="52" cy="263.232" rx="20" ry="17.2325"/>
    <ellipse style="fill: none; fill-opacity:0; stroke-width: 2; stroke: #000000" cx="52" cy="263.232" rx="20" ry="17.2325"/>
    <text font-size="12.8" style="fill: #000000;text-anchor:middle;font-family:sans-serif;font-style:normal;font-weight:normal" x="52" y="267.132">
      <tspan x="52" y="267.132"></tspan>
    </text>
  </g>
  <g>
    <line style="fill: none; fill-opacity:0; stroke-width: 2; stroke: #000000" x1="52" y1="101.469" x2="52" y2="115.259"/>
    <polygon style="fill: #000000" points="52,122.759 47,112.759 52,115.259 57,112.759 "/>
    <polygon style="fill: none; fill-opacity:0; stroke-width: 2; stroke: #000000" points="52,122.759 47,112.759 52,115.259 57,112.759 "/>
  </g>
  <g>
    <line style="fill: none; fill-opacity:0; stroke-width: 2; stroke: #000000" x1="52" y1="161.469" x2="52" y2="175.259"/>
    <polygon style="fill: #000000" points="52,182.759 47,172.759 52,175.259 57,172.759 "/>
    <polygon style="fill: none; fill-opacity:0; stroke-width: 2; stroke: #000000" points="52,182.759 47,172.759 52,175.259 57,172.759 "/>
  </g>
  <g>
    <line style="fill: none; fill-opacity:0; stroke-width: 2; stroke: #000000" x1="52" y1="221.469" x2="52" y2="235.259"/>
    <polygon style="fill: #000000" points="52,242.759 47,232.759 52,235.259 57,232.759 "/>
    <polygon style="fill: none; fill-opacity:0; stroke-width: 2; stroke: #000000" points="52,242.759 47,232.759 52,235.259 57,232.759 "/>
  </g>
  <text font-size="12.8" style="fill: #000000;text-anchor:middle;font-family:sans-serif;font-style:normal;font-weight:normal" x="52" y="267.657">
    <tspan x="52" y="267.657">a</tspan>
  </text>
  <text font-size="12.8" style="fill: #000000;text-anchor:middle;font-family:sans-serif;font-style:normal;font-weight:normal" x="52" y="207.657">
    <tspan x="52" y="207.657">b</tspan>
  </text>
  <text font-size="12.8" style="fill: #000000;text-anchor:middle;font-family:sans-serif;font-style:normal;font-weight:normal" x="52" y="147.657">
    <tspan x="52" y="147.657">c</tspan>
  </text>
  <text font-size="12.8" style="fill: #000000;text-anchor:middle;font-family:sans-serif;font-style:normal;font-weight:normal" x="52" y="87.657">
    <tspan x="52" y="87.657">d</tspan>
  </text>
  <g>
    <rect style="fill: #add8e6" x="23.586" y="23.0853" width="59.4142" height="18.4142" rx="2" ry="2"/>
    <rect style="fill: none; fill-opacity:0; stroke-width: 2; stroke-linejoin: round; stroke: #000000" x="23.586" y="23.0853" width="59.4142" height="18.4142" rx="2" ry="2"/>
  </g>
  <text font-size="12.8" style="fill: #000000;text-anchor:middle;font-family:sans-serif;font-style:normal;font-weight:normal" x="53.2931" y="36.7174">
    <tspan x="53.2931" y="36.7174">master</tspan>
  </text>
  <line style="fill: none; fill-opacity:0; stroke-width: 2; stroke-linejoin: round; stroke: #000000" x1="53.0339" y1="42.5027" x2="52.4625" y2="65.0127"/>
</svg>
